<svg width="24" height="24" viewBox="0 0 24 24" fill="none" xmlns="http://www.w3.org/2000/svg">
<path d="M7.03589 17.5001L18.3244 6.21158C18.3244 6.21157 18.3244 6.21155 18.3244 6.21153C18.4181 6.11777 18.4708 5.99064 18.4708 5.85808C18.4708 5.72553 18.4181 5.5984 18.3244 5.50464L7.03589 17.5001ZM7.03589 17.5001H3.5V13.9642L14.7885 2.67569C14.7885 2.67567 14.7885 2.67565 14.7886 2.67564C14.8823 2.58193 15.0094 2.5293 15.142 2.5293C15.2746 2.5293 15.4017 2.58193 15.4954 2.67564C15.4955 2.67565 15.4955 2.67567 15.4955 2.67569L18.3244 5.50458L7.03589 17.5001ZM6.414 16.5001H6.62111L6.76755 16.3536L16.9096 6.21164L17.2631 5.85808L16.9096 5.50453L15.4956 4.09053L15.142 3.73698L14.7884 4.09053L4.64645 14.2325L4.5 14.379V14.5861V16.0001V16.5001H5H6.414ZM3.5 20.5001H20.5V21.5001H3.5V20.5001Z" stroke="#445A74" stroke-opacity="0.7"/>
</svg>
