<svg width="378" height="300" viewBox="0 0 378 300" fill="none" xmlns="http://www.w3.org/2000/svg">
<g clip-path="url(#clip0_2_296)">
<path d="M42.3346 120.071C41.495 119.551 40.7452 118.899 40.114 118.141C39.7636 117.805 39.5372 117.361 39.4722 116.88C39.4072 116.4 39.5069 115.911 39.7555 115.495L41.1882 112.491C41.8761 113.565 42.7491 114.51 43.7669 115.28C44.8056 116.04 45.9371 116.665 47.1338 117.14C47.9933 117.569 48.4232 118.069 48.4948 118.713C48.4713 119.56 48.1973 120.381 47.7069 121.073L47.2772 121.859C45.5184 121.632 43.831 121.022 42.3346 120.071V120.071Z" fill="white"/>
<path d="M35.1714 156.186C32.2721 156.397 29.3609 155.99 26.6315 154.991C23.902 153.992 21.4166 152.425 19.3406 150.393C15.576 146.014 13.6513 140.351 13.9683 134.589C13.9738 130.237 14.775 125.923 16.3322 121.859C17.8799 117.829 19.7982 113.951 22.0627 110.274C23.3521 110.846 23.9249 111.633 23.6384 112.634C23.2731 114.095 22.7447 115.51 22.0627 116.853C20.8664 119.34 19.8841 121.924 19.126 124.577C18.3499 127.176 17.9635 129.875 17.9796 132.586C17.8372 134.815 18.1654 137.049 18.9428 139.144C19.7202 141.238 20.9295 143.146 22.4925 144.744C26.2572 147.871 31.0699 149.455 35.9592 149.178C39.7573 149.201 43.5331 148.596 47.1337 147.39C50.3426 146.301 53.3452 144.681 56.016 142.598C58.577 140.555 60.8217 138.145 62.6777 135.447C64.5539 132.76 66.0936 129.854 67.2622 126.794C69.5944 120.722 70.7843 114.274 70.7721 107.771C70.7721 107.27 70.7721 106.627 70.7721 105.84C70.7721 105.054 70.7721 104.41 70.7721 103.909C70.6962 102.694 71.0798 101.495 71.8467 100.548C72.1199 100.223 72.4591 99.9591 72.8418 99.7742C73.2246 99.5893 73.6423 99.4876 74.0673 99.4757C79.0319 101.673 84.2545 103.234 89.6112 104.124C96.3096 105.237 103.093 105.764 109.883 105.697C110.281 106.262 110.545 106.909 110.657 107.59C110.768 108.271 110.724 108.969 110.528 109.63C109.91 110.882 108.939 111.927 107.734 112.634C96.8949 113.069 86.0729 111.417 75.8581 107.771C75.4096 111.743 74.7155 115.684 73.7805 119.571C72.9125 123.409 71.7142 127.166 70.1989 130.798C68.686 134.355 66.7886 137.737 64.5402 140.882C62.4234 143.958 59.8372 146.685 56.8755 148.963C53.905 151.216 50.5918 152.978 47.062 154.184C43.2403 155.517 39.2199 156.194 35.1714 156.186V156.186Z" fill="white"/>
<path fill-rule="evenodd" clip-rule="evenodd" d="M107.723 108.762C107.333 110.057 107.388 111.445 107.877 112.705C116.181 112.62 124.457 111.734 132.59 110.06C140.705 108.575 148.666 106.349 156.372 103.409C164.068 100.561 171.499 97.0437 178.578 92.8963C189.517 86.4839 199.439 78.482 208.019 69.1537C211.098 65.8295 213.968 62.3186 216.614 58.6412C217.925 59.2039 219.343 59.4726 220.769 59.4279C222.992 59.4744 225.181 58.8782 227.072 57.7114C228.839 56.6133 230.372 55.1798 231.585 53.4922C232.795 51.8631 233.738 50.0528 234.379 48.1286C234.914 46.463 235.204 44.7285 235.239 42.9796C235.295 41.3087 234.899 39.6535 234.092 38.1883C233.726 37.5355 233.182 37.0003 232.522 36.6456C231.862 36.2909 231.115 36.1315 230.368 36.186C229.217 36.2201 228.119 36.6786 227.288 37.4732C226.115 38.5258 225.058 39.7005 224.136 40.9773C223.061 42.4075 221.915 43.9809 220.84 45.7688C220.124 46.9611 219.344 48.1534 218.563 49.3457C218.174 49.9413 217.784 50.5368 217.402 51.1323C216.024 50.5514 214.684 49.8826 213.391 49.1299L209.308 46.9844C208.019 46.3408 206.657 45.7687 205.44 45.2681C204.265 44.8582 203.031 44.6409 201.787 44.6245C199.19 44.5907 196.661 45.4491 194.624 47.056C191.996 49.2476 189.808 51.917 188.176 54.9225C188.077 55.0819 187.96 55.2578 187.832 55.452C187.499 55.955 187.086 56.58 186.672 57.354C186.473 57.7261 186.24 58.0725 186.02 58.399C185.606 59.0136 185.239 59.5578 185.239 60.0715C186.959 60.9297 188.535 60.3577 189.896 58.1407C191.124 56.0131 192.754 54.143 194.695 52.634C196.223 51.6265 198.021 51.1031 199.852 51.1323C200.978 51.1076 202.097 51.3019 203.147 51.7043C204.259 52.0921 205.337 52.5705 206.371 53.1347C207.445 53.7068 208.52 54.3503 209.594 55.0655C210.667 55.7797 211.812 56.4226 212.957 57.0655L212.961 57.0678C210.163 60.4536 207.174 63.677 204.007 66.7222C200.855 69.7973 197.56 72.658 194.122 75.5185C188.197 80.241 181.896 84.4742 175.283 88.1764C168.623 91.8728 161.676 95.0296 154.51 97.6162C147.393 100.221 140.058 102.184 132.59 103.48C125.147 104.85 117.595 105.544 110.026 105.554C108.922 106.338 108.112 107.466 107.723 108.762ZM227.216 44.0527C227.745 43.6237 228.397 43.3732 229.078 43.3375C229.412 43.2904 229.751 43.3172 230.073 43.4161C230.395 43.515 230.691 43.6834 230.94 43.9095C231.353 44.4147 231.58 45.0455 231.585 45.6974C231.594 46.5833 231.345 47.4529 230.869 48.2004C229.865 50.0039 228.234 51.3778 226.284 52.0622C225.248 52.4254 224.159 52.6185 223.061 52.6342H220.697L222.989 49.0585C223.66 48.008 224.402 47.0045 225.21 46.0551C225.804 45.3175 226.477 44.6462 227.216 44.0527Z" fill="white"/>
<path d="M230.797 71.2277C230.036 71.2314 229.281 71.0857 228.577 70.7986C227.796 70.4648 227.089 69.9784 226.499 69.3682C229.284 68.0578 231.845 66.3204 234.092 64.2192C236.309 62.1863 238.13 59.7618 239.464 57.0679C240.959 54.1182 241.997 50.9596 242.544 47.6996C243.243 43.6372 243.579 39.5209 243.547 35.3992C243.547 33.4922 243.547 31.4183 243.547 29.1776C243.547 26.9606 243.547 24.6007 243.547 22.0262C243.562 18.0096 244.24 14.023 245.553 10.2265C246.763 6.39123 248.736 2.83978 251.355 -0.214462C251.622 -0.15546 251.875 -0.0426111 252.096 0.117266C252.318 0.277144 252.505 0.480488 252.645 0.715033C252.762 1.1118 252.762 1.53409 252.645 1.93086C252.64 2.59757 252.493 3.25556 252.215 3.86165C251.789 4.61591 251.43 5.40563 251.14 6.22173C250.239 8.18252 249.59 10.2488 249.207 12.3718C249.207 14.5172 248.562 16.6627 248.347 18.9512C248.132 21.2396 248.347 23.385 248.347 25.6019C248.347 27.8188 248.347 29.8928 248.347 31.9667C248.332 36.1502 248.069 40.3292 247.559 44.4816C247.099 48.5087 246.26 52.4835 245.052 56.3529C244.508 58.0353 243.862 59.6829 243.118 61.2871C242.311 62.9992 241.301 64.6081 240.109 66.0787C238.984 67.4686 237.627 68.654 236.098 69.5828C234.544 70.6647 232.692 71.2394 230.797 71.2277V71.2277Z" fill="white"/>
<path d="M207.947 111.49C207.144 110.949 206.421 110.299 205.798 109.559C205.447 109.223 205.221 108.779 205.156 108.298C205.091 107.818 205.191 107.329 205.439 106.913L206.872 103.909C207.538 105 208.415 105.948 209.451 106.698C210.48 107.473 211.613 108.099 212.818 108.558C213.677 108.987 214.107 109.488 214.179 110.131C214.164 110.98 213.889 111.803 213.391 112.491L212.961 113.278C211.177 113.063 209.464 112.452 207.947 111.49V111.49Z" fill="white"/>
<path d="M241.757 98.6173C241.344 102.684 240.675 106.721 239.751 110.703C238.792 114.65 237.547 118.522 236.026 122.288C234.498 125.86 232.601 129.263 230.367 132.443C228.3 135.426 225.842 138.119 223.061 140.453C220.06 142.716 216.725 144.502 213.176 145.745C209.316 147.009 205.276 147.637 201.213 147.604C198.303 147.816 195.381 147.41 192.64 146.411C189.899 145.413 187.4 143.845 185.311 141.812C181.546 137.432 179.622 131.77 179.939 126.007C179.967 121.651 180.793 117.337 182.374 113.278C183.912 109.256 185.806 105.379 188.033 101.693C189.394 102.265 189.896 103.051 189.681 104.052C189.282 105.513 188.73 106.927 188.033 108.272C186.867 110.772 185.886 113.353 185.096 115.995C184.378 118.605 184.017 121.299 184.022 124.005C183.887 126.269 184.247 128.534 185.075 130.646C185.904 132.757 187.182 134.664 188.821 136.234C192.556 139.362 197.348 140.948 202.216 140.667C206.041 140.731 209.846 140.125 213.462 138.88C216.671 137.791 219.674 136.171 222.345 134.088C224.923 132.063 227.17 129.651 229.006 126.937C230.855 124.234 232.393 121.331 233.591 118.284C234.733 115.221 235.597 112.062 236.17 108.844C236.737 105.681 237.024 102.474 237.029 99.2611V97.3301C237.029 96.5435 237.029 95.8999 237.029 95.3993C236.951 94.2174 237.308 93.0478 238.032 92.1098C238.306 91.7623 238.654 91.4795 239.05 91.2817C239.446 91.084 239.881 90.976 240.324 90.9655C241.415 91.502 242.618 91.7715 243.834 91.7521C244.011 92.4079 244.011 93.0986 243.834 93.7544C243.82 95.0587 243.475 96.3381 242.831 97.4733C242.551 97.9205 242.186 98.3089 241.757 98.6173Z" fill="white"/>
<path d="M266.04 73.23C265.956 74.3589 266.231 75.4854 266.827 76.4482C267.33 77.1728 267.933 77.8227 268.618 78.379L270.409 79.6662C270.664 79.8283 270.875 80.0497 271.025 80.3114C271.174 80.573 271.258 80.8668 271.269 81.168C271.22 81.8137 271.05 82.4446 270.767 83.0274C270.406 83.759 269.974 84.4536 269.478 85.1013C268.953 85.7232 268.351 86.276 267.687 86.7462C267.144 87.1994 266.461 87.4518 265.753 87.4612C265.214 86.8443 264.555 86.3427 263.816 85.9863C263.077 85.6299 262.275 85.4263 261.455 85.3875C260.298 85.3925 259.191 85.8554 258.375 86.6747C257.279 87.7729 256.317 88.9973 255.51 90.3219C254.798 91.385 254.033 92.4113 253.218 93.397C252.32 94.4337 251.311 95.3688 250.209 96.1859C249.051 97.04 247.772 97.715 246.413 98.1883C244.892 98.7137 243.294 98.9797 241.685 98.975C241.076 97.7793 240.908 96.4079 241.209 95.1008C241.51 93.7936 242.262 92.6338 243.333 91.8236C244.89 91.8842 246.439 91.565 247.845 90.8939C249.071 90.3241 250.205 89.5772 251.212 88.677C252.16 87.8012 253.002 86.817 253.719 85.7449C254.408 84.6659 255.174 83.6383 256.011 82.6699C256.879 81.8038 257.84 81.0363 258.876 80.3814C259.831 79.6505 260.974 79.2043 262.172 79.0942L266.04 73.23Z" fill="white"/>
<path d="M261.885 78.8081C261.525 77.1829 261.525 75.4989 261.885 73.8736C262.229 72.2943 262.684 70.7411 263.246 69.2253C263.819 67.795 264.392 66.3647 264.894 64.9344C265.381 63.7032 265.648 62.396 265.682 61.0726C265.682 60.2145 265.682 59.0704 265.682 57.6401C265.682 56.2098 265.682 54.8511 265.682 53.4208C265.682 51.9905 265.682 50.5602 265.682 49.13C265.682 47.6997 265.682 46.4839 265.682 45.4827C265.651 42.9704 265.818 40.4598 266.183 37.9738C266.449 35.9037 266.929 33.8666 267.615 31.8951C268.251 30.1011 269.067 28.3759 270.051 26.7461C271.053 25.0906 272.178 23.5128 273.418 22.0262C273.712 22.0876 273.991 22.2081 274.237 22.3802C274.483 22.5523 274.692 22.7725 274.85 23.0275C275.141 23.5523 275.289 24.144 275.28 24.7438C275.191 25.4217 275.047 26.0914 274.85 26.7461C274.583 27.4561 274.272 28.1488 273.919 28.8201C272.397 31.8137 271.589 35.1176 271.555 38.4745C271.555 42.1932 271.555 46.4839 271.555 51.1323C271.751 54.264 271.582 57.4076 271.054 60.5006C270.46 63.9443 269.272 67.2591 267.544 70.298C267.035 71.0655 266.739 71.9537 266.685 72.8726C266.727 73.6825 266.727 74.4941 266.685 75.304C266.67 75.9465 266.523 76.5791 266.255 77.1632C265.957 77.6886 265.507 78.1123 264.965 78.379C264.003 78.8221 262.932 78.9714 261.885 78.8081V78.8081Z" fill="white"/>
<path d="M282.873 159.046C282.035 158.553 281.285 157.925 280.652 157.187C280.362 156.794 280.205 156.317 280.205 155.828C280.205 155.339 280.362 154.863 280.652 154.47L282.085 151.466C282.751 152.557 283.628 153.505 284.664 154.255C285.735 154.962 286.861 155.584 288.031 156.114C288.89 156.543 289.32 157.044 289.392 157.688C289.387 158.538 289.111 159.365 288.604 160.048L288.174 160.834C286.281 160.713 284.452 160.096 282.873 159.046V159.046Z" fill="white"/>
<path d="M180.082 166.984H173.778C171.2 166.984 168.406 166.985 165.398 166.484C162.389 165.983 159.38 165.84 156.372 165.34C153.564 164.819 150.808 164.053 148.134 163.051C145.936 162.196 143.919 160.934 142.189 159.333C141.423 158.626 140.821 157.76 140.425 156.796C140.029 155.833 139.849 154.795 139.897 153.755V153.254C139.931 153.137 139.931 153.013 139.897 152.896C145.971 155.676 152.411 157.578 159.022 158.546C166.319 159.705 173.697 160.279 181.085 160.262C188.27 160.265 195.447 159.812 202.574 158.904C209.815 157.893 216.991 156.46 224.064 154.613C231.228 152.753 238.244 150.362 245.052 147.461C251.757 144.517 258.182 140.974 264.249 136.877C267.01 135.05 269.664 133.069 272.2 130.942C275.15 128.515 277.949 125.912 280.581 123.147C283.184 120.447 285.579 117.554 287.744 114.493C289.795 111.868 291.393 108.919 292.472 105.769C292.003 105.539 291.489 105.417 290.968 105.411H288.604H285.954H283.232C281.143 105.478 279.064 105.087 277.143 104.267C276.309 103.815 275.631 103.123 275.197 102.281C274.763 101.44 274.592 100.487 274.707 99.547C274.704 98.3609 274.872 97.1805 275.209 96.0429C275.567 94.8272 275.997 93.6115 276.498 92.3243C277 91.037 277.573 89.8928 278.217 88.677C278.862 87.4613 279.363 86.3885 279.865 85.2443L283.232 78.5936C284.163 76.7342 284.879 75.161 285.452 73.7307C285.991 72.4642 286.398 71.1462 286.67 69.7973C286.97 68.508 287.114 67.1876 287.1 65.8641C287.169 63.909 286.562 61.9896 285.381 60.429C284.086 58.8692 282.474 57.6018 280.653 56.7104L284.449 49.559C286.778 50.4804 288.741 52.1383 290.036 54.279C291.274 56.4587 291.916 58.9248 291.899 61.4303C291.892 63.8438 291.579 66.2467 290.968 68.5817C290.334 71.0135 289.544 73.4022 288.604 75.7331C287.692 77.9778 286.663 80.1737 285.523 82.3122L282.372 88.0334C281.441 89.7498 280.653 91.3229 280.008 92.6102C279.501 93.5908 279.185 94.6586 279.077 95.7568C279.085 96.0863 279.173 96.409 279.336 96.6959C279.498 96.9828 279.729 97.2252 280.008 97.4017C280.788 97.816 281.638 98.0826 282.515 98.1883C283.684 98.2678 284.856 98.2678 286.025 98.1883H292.472C293.212 98.2277 293.94 98.3972 294.621 98.6889C294.924 98.7995 295.201 98.9708 295.435 99.1922C295.669 99.4135 295.855 99.6802 295.982 99.9761C296.328 100.79 296.499 101.667 296.483 102.551C296.446 104.61 296.034 106.646 295.266 108.558C294.429 110.743 293.398 112.849 292.186 114.851C290.991 116.945 289.65 118.952 288.174 120.858C286.67 122.789 285.309 124.505 284.02 125.936C277.706 132.926 270.477 139.036 262.53 144.1C254.315 149.273 245.575 153.564 236.456 156.901C218.383 163.457 199.311 166.844 180.082 166.913V166.984Z" fill="white"/>
<path d="M311.981 109.049C311.202 108.297 310.604 107.379 310.232 106.363C309.86 105.348 309.723 104.261 309.832 103.185L313.7 95.3183C314.157 94.5367 314.711 93.8159 315.348 93.173C315.781 92.7501 316.298 92.4231 316.866 92.2136C317.434 92.0041 318.039 91.9167 318.643 91.9571C319.921 91.9259 321.175 92.3016 322.225 93.0298C323.28 93.7868 324.16 94.7625 324.804 95.8903C325.463 97.06 325.969 98.3101 326.308 99.6092C326.601 100.828 326.769 102.074 326.809 103.328C326.76 107.443 325.959 111.514 324.445 115.342C322.954 119.468 320.774 123.312 317.999 126.713C315.335 130.153 312.026 133.043 308.257 135.223C304.596 137.467 300.375 138.632 296.079 138.584C293.974 138.67 291.88 138.227 289.99 137.297C289.277 136.903 288.686 136.322 288.282 135.615C287.877 134.909 287.676 134.105 287.699 133.292C287.591 132.821 287.591 132.332 287.699 131.862C287.699 131.433 288.128 131.147 288.415 131.075C289.409 131.697 290.498 132.156 291.638 132.434C292.858 132.726 294.108 132.87 295.363 132.863C298.718 132.891 302.047 132.284 305.176 131.075C308.002 129.893 310.596 128.222 312.841 126.141C315.123 124.08 317.059 121.665 318.572 118.989C320.223 116.204 321.522 113.226 322.44 110.122L317.211 111.051C315.282 111.039 313.423 110.328 311.981 109.049V109.049Z" fill="white"/>
<path d="M317.497 110.98C317.221 110.45 317.076 109.861 317.076 109.263C317.076 108.666 317.221 108.077 317.497 107.547C318.076 106.311 318.85 105.176 319.789 104.186C322.801 104.06 325.786 103.556 328.671 102.684C331.687 101.852 334.614 100.726 337.41 99.3229C340.151 97.9219 342.785 96.3203 345.29 94.5314C347.586 92.7947 349.763 90.9075 351.808 88.882C353.553 87.1134 355.113 85.1726 356.464 83.0894C357.517 81.4471 358.269 79.631 358.685 77.7259C356.264 77.5467 353.832 77.8382 351.522 78.584C349.161 79.3072 346.917 80.367 344.86 81.7306C342.496 83.2801 340.268 85.0264 338.199 86.951C335.978 89.0249 333.614 91.3848 331.035 94.1024C330.689 94.5445 330.256 94.912 329.764 95.1824C329.271 95.4529 328.729 95.6206 328.17 95.6757C327.262 95.7543 326.355 95.5278 325.591 95.0321C327.597 92.3861 329.245 90.0976 330.534 88.3098C331.722 86.6321 332.73 84.8344 333.542 82.9462C334.263 81.1126 334.721 79.1867 334.903 77.2252C335.194 74.6376 335.313 72.0336 335.261 69.4303C335.261 67.4279 335.261 65.64 335.261 64.0667C335.261 62.4934 335.261 60.8486 335.261 59.1323C335.212 55.6182 335.72 52.1184 336.766 48.7627C337.936 45.4526 339.764 42.4123 342.138 39.8235C342.401 39.8701 342.651 39.9704 342.873 40.1181C343.095 40.2658 343.283 40.4576 343.427 40.6816C343.528 41.1048 343.528 41.5458 343.427 41.969C343.557 42.5821 343.557 43.2152 343.427 43.8282L342.282 46.1883C341.646 47.5512 341.119 48.962 340.705 50.4076C340.394 51.5558 340.178 52.7278 340.061 53.9117C339.991 55.0787 339.991 56.249 340.061 57.416V61.3492C340.061 65.2109 340.061 68.7151 340.061 71.8617C339.916 74.8976 339.287 77.891 338.199 80.7293C339.914 79.1999 341.733 77.7902 343.643 76.5101C345.401 75.3055 347.244 74.2301 349.158 73.2921C350.808 72.4206 352.534 71.7023 354.316 71.1465C355.801 70.6857 357.345 70.4447 358.9 70.4313C360.024 70.3052 361.158 70.5569 362.123 71.1465C362.449 71.5141 362.694 71.9459 362.842 72.4141C362.991 72.8822 363.038 73.3763 362.983 73.8641C362.959 76.7843 362.375 79.673 361.264 82.3742C360.05 85.33 358.461 88.118 356.536 90.6698C354.438 93.4544 352.035 95.9969 349.373 98.2503C346.611 100.66 343.583 102.747 340.347 104.472C336.88 106.427 333.204 107.986 329.388 109.12C325.531 110.294 321.528 110.92 317.497 110.98V110.98Z" fill="white"/>
<path d="M241.685 224.839C236.863 224.828 232.057 224.276 227.359 223.194C223.052 222.274 218.95 220.577 215.253 218.188C215.356 217.677 215.608 217.207 215.978 216.838C216.347 216.469 216.818 216.217 217.33 216.114C218.539 215.908 219.775 215.908 220.984 216.114C224.135 216.687 227.144 217.187 230.009 217.545C233.051 217.92 236.113 218.111 239.178 218.117C247.297 218.154 255.379 217.022 263.174 214.756C270.679 212.576 277.894 209.503 284.664 205.602C291.437 201.735 297.777 197.156 303.575 191.943C309.551 186.691 315.153 181.027 320.337 174.994C323.99 170.703 327.5 167.056 330.437 163.909C333.188 161.021 336.132 158.322 339.247 155.828C341.894 153.702 344.722 151.811 347.7 150.179C350.692 148.603 353.836 147.333 357.084 146.389C357.084 144.529 357.084 142.884 357.084 141.311C357.084 139.738 357.084 138.307 356.582 136.877C356.081 135.447 356.582 133.945 356.081 132.372C355.579 130.798 356.081 129.225 356.081 127.509C356.07 125.107 356.31 122.71 356.797 120.358C357.21 118.444 357.81 116.576 358.588 114.779C359.239 113.174 360.056 111.64 361.023 110.203C362.026 108.844 362.957 107.628 363.96 106.484C364.242 106.529 364.51 106.636 364.745 106.797C364.98 106.957 365.177 107.168 365.321 107.414C365.471 107.903 365.471 108.426 365.321 108.915C365.237 109.595 365.018 110.252 364.677 110.846L363.817 112.92C362.791 115.2 362.068 117.604 361.668 120.071C361.299 122.677 361.132 125.307 361.167 127.938C361.167 129.368 361.167 131.299 361.167 133.659C361.335 136.04 361.335 138.43 361.167 140.811C361.038 143.245 360.58 145.65 359.806 147.962C359.194 150 357.839 151.735 356.009 152.825C352.701 154 349.511 155.484 346.482 157.259C343.645 158.935 340.939 160.824 338.388 162.908C335.829 164.96 333.434 167.208 331.224 169.631C328.932 172.062 326.712 174.637 324.42 177.426C319.354 183.785 313.874 189.805 308.016 195.447C302.133 201.086 295.675 206.096 288.747 210.393C281.876 214.682 274.517 218.139 266.828 220.691C258.723 223.408 250.234 224.809 241.685 224.839Z" fill="white"/>
<path d="M356.152 165.626C355.391 165.63 354.637 165.484 353.932 165.197C353.163 164.879 352.476 164.39 351.926 163.766C354.672 162.42 357.226 160.712 359.519 158.689C361.691 156.633 363.486 154.213 364.82 151.538C366.314 148.588 367.352 145.429 367.9 142.169C368.634 138.112 368.97 133.992 368.903 129.869C368.903 127.938 368.903 125.864 368.903 123.647C368.903 121.43 368.903 119.07 368.903 116.496C368.952 112.482 369.629 108.501 370.909 104.696C372.13 100.851 374.129 97.2973 376.782 94.2551C377.292 94.3986 377.728 94.7312 378 95.1848C378.117 95.5816 378.117 96.0036 378 96.4004C377.995 97.0671 377.849 97.7253 377.57 98.3314C377.158 99.0925 376.799 99.8809 376.496 100.691C375.626 102.664 374.978 104.727 374.562 106.842C374.562 108.987 373.917 111.204 373.702 113.421C373.487 115.638 373.702 117.855 373.702 120.071C373.702 122.288 373.702 124.362 373.702 126.436C373.687 130.62 373.424 134.799 372.914 138.951C372.455 142.978 371.615 146.953 370.407 150.822C369.863 152.505 369.217 154.153 368.473 155.757C367.693 157.483 366.681 159.095 365.465 160.548C364.339 161.938 362.982 163.124 361.453 164.053C359.895 165.118 358.041 165.668 356.152 165.626V165.626Z" fill="white"/>
<path d="M8.16595 217.116C6.0502 217.226 3.94471 216.756 2.07744 215.757C1.34543 215.399 0.732732 214.837 0.313318 214.139C-0.106097 213.441 -0.314448 212.637 -0.286527 211.824C-0.401887 211.354 -0.401887 210.863 -0.286527 210.393C-0.230905 210.21 -0.13896 210.039 -0.0158974 209.891C0.107165 209.744 0.258654 209.623 0.429614 209.535C1.37882 210.209 2.4488 210.695 3.58142 210.965C4.82629 211.253 6.10034 211.397 7.37811 211.395C10.2395 211.357 13.0643 210.749 15.6872 209.607C18.3457 208.487 20.7742 206.887 22.8503 204.887C24.9964 202.841 26.7452 200.416 28.008 197.735C29.2769 195.23 29.939 192.462 29.9418 189.654C29.9631 187.916 29.4372 186.215 28.4378 184.791C27.8846 184.018 27.1351 183.405 26.2667 183.015C25.3982 182.626 24.4419 182.474 23.4952 182.575C22.2396 182.541 20.992 182.786 19.8419 183.29L17.6931 178.713C18.7624 177.746 19.9402 176.906 21.203 176.21C22.4018 175.602 23.7265 175.284 25.0709 175.28C26.3234 175.272 27.5601 175.559 28.6805 176.118C29.8008 176.677 30.7732 177.493 31.5179 178.498C33.2994 181.021 34.182 184.068 34.0249 187.151C34.0232 190.802 33.2417 194.41 31.7326 197.735C30.261 201.213 28.2286 204.426 25.7158 207.247C23.3466 210.113 20.4843 212.535 17.2633 214.398C14.5105 216.059 11.38 216.994 8.16595 217.116V217.116Z" fill="white"/>
<path d="M43.552 199.881C43.4952 200.454 43.3032 201.005 42.992 201.49C42.6807 201.975 42.259 202.379 41.7612 202.67C41.3314 202.855 40.8683 202.95 40.4002 202.95C39.9321 202.95 39.469 202.855 39.0392 202.67C39.1178 198.299 40.0168 193.981 41.6895 189.94C43.64 184.817 46.3176 180 49.6405 175.638C50.1118 175.804 50.5182 176.115 50.8013 176.526C51.0844 176.937 51.23 177.427 51.2166 177.926C50.9622 179.33 50.426 180.668 49.6405 181.859C47.8316 184.927 46.3204 188.159 45.1277 191.514C44.1699 194.204 43.6384 197.027 43.552 199.881V199.881Z" fill="white"/>
<path d="M72.0612 205.459C70.946 206.862 69.7501 208.199 68.4796 209.464C67.1266 210.763 65.6377 211.914 64.0385 212.896C60.6846 215.058 56.7843 216.224 52.7923 216.257C50.9769 216.476 49.1357 216.288 47.402 215.708C45.6682 215.128 44.0857 214.17 42.7689 212.903C41.4521 211.637 40.434 210.093 39.7889 208.385C39.1438 206.677 38.8878 204.847 39.0391 203.027C39.5463 202.232 40.2062 201.544 40.9807 201.004C41.7552 200.464 42.6291 200.082 43.5519 199.881C43.4969 201.391 43.7401 202.898 44.2681 204.315C44.7636 205.455 45.5249 206.46 46.4886 207.247C47.4955 208.004 48.6385 208.563 49.8556 208.892C51.3078 209.251 52.8008 209.419 54.2967 209.392C57.2408 209.394 60.1412 208.682 62.7492 207.318C65.1672 206.09 67.3305 204.416 69.1245 202.384C68.0981 200.887 66.5763 199.798 64.8263 199.309C63.0776 199.145 61.3178 199.466 59.7408 200.238C59.3537 200.045 59.0399 199.731 58.8462 199.344C58.6526 198.957 58.5892 198.518 58.6661 198.093C58.8986 197.093 59.365 196.161 60.0271 195.375C61.5245 193.401 63.4638 191.803 65.6902 190.71C67.9166 189.617 70.3687 189.06 72.8495 189.082C74.7324 188.999 76.5917 189.526 78.1501 190.584C78.787 191.053 79.3016 191.669 79.6506 192.378C79.9997 193.087 80.1727 193.87 80.1556 194.66C80.127 195.731 79.8578 196.782 79.3677 197.735C78.8263 198.799 78.1782 199.805 77.4336 200.739C76.6304 201.697 75.7694 202.604 74.8549 203.456C73.994 204.217 73.0579 204.887 72.0612 205.459V205.459Z" fill="white"/>
<path d="M100.786 177.211C100.737 178.337 101.01 179.453 101.573 180.429C102.076 181.154 102.679 181.804 103.364 182.36L105.227 183.719C105.472 183.884 105.673 184.108 105.81 184.37C105.948 184.633 106.018 184.925 106.015 185.221C105.99 185.847 105.819 186.46 105.513 187.008C105.152 187.74 104.72 188.435 104.224 189.082C103.699 189.725 103.098 190.302 102.433 190.799C101.868 191.203 101.194 191.428 100.499 191.442C99.9845 190.98 99.4055 190.594 98.7801 190.298C98.1042 189.99 97.3733 189.82 96.6308 189.797C95.7293 189.78 94.8394 190.002 94.0522 190.441C93.2504 190.901 92.5052 191.453 91.8316 192.086C91.0966 192.714 90.4463 193.436 89.8974 194.231C89.3244 195.089 88.6797 195.876 88.1066 196.591C86.1721 199.192 83.7368 201.38 80.9435 203.027C78.1938 204.722 75.0043 205.568 71.7748 205.459C71.431 204.463 71.431 203.38 71.7748 202.384C72.0453 200.919 72.8332 199.599 73.9954 198.665C76.522 198.667 79.0004 197.974 81.1586 196.663C83.6352 195.064 85.7763 193 87.4622 190.584L89.611 187.652C90.2557 186.794 90.9005 186.079 91.4735 185.435C92.0808 184.826 92.7821 184.319 93.5507 183.933C94.3095 183.471 95.1706 183.2 96.0581 183.147L100.786 177.211Z" fill="white"/>
<path d="M104.869 154.541C104.899 157.367 104.683 160.191 104.224 162.98C103.794 165.34 103.364 167.485 102.863 169.273C102.362 171.061 101.86 172.634 101.431 173.921C101.042 174.977 100.824 176.087 100.786 177.211C100.876 178.234 100.876 179.263 100.786 180.286C100.737 180.918 100.54 181.531 100.213 182.074C99.9223 182.496 99.4905 182.8 98.995 182.932C98.2575 183.02 97.512 183.02 96.7744 182.932C96.4378 180.944 96.4378 178.913 96.7744 176.925C97.1807 175.314 97.7077 173.737 98.3506 172.205L100.07 167.914C100.604 166.373 100.87 164.753 100.858 163.123C100.858 162.479 100.858 161.693 100.499 160.691C100.141 159.69 100.499 158.689 100.499 157.545C100.565 155.639 100.829 153.746 101.287 151.895C102.12 148.175 103.521 144.605 105.442 141.311C106.311 139.832 107.293 138.421 108.379 137.092C108.85 137.266 109.247 137.594 109.508 138.022C109.768 138.451 109.875 138.955 109.811 139.452C109.721 140.441 109.402 141.395 108.88 142.241C107.839 143.961 106.975 145.782 106.302 147.676C105.42 149.861 104.935 152.186 104.869 154.541V154.541Z" fill="white"/>
<path d="M109.883 170.918C108.471 171.008 107.061 170.717 105.8 170.075C104.54 169.433 103.476 168.465 102.72 167.271C101.023 164.397 100.201 161.092 100.356 157.759C100.848 156.958 101.493 156.261 102.256 155.709C103.018 155.156 103.881 154.76 104.797 154.541C104.661 157.024 105.206 159.496 106.373 161.692C106.9 162.549 107.653 163.243 108.551 163.698C109.449 164.152 110.455 164.349 111.459 164.267C112.65 164.31 113.826 163.985 114.826 163.337C115.757 162.622 116.556 161.751 117.189 160.763C117.844 159.632 118.304 158.399 118.55 157.116C118.839 155.752 118.983 154.362 118.98 152.968C118.98 152.038 118.98 150.751 118.98 149.106C118.98 147.461 118.98 145.816 118.98 144.1C118.966 141.395 119.427 138.708 120.341 136.162C121.342 133.561 122.771 131.144 124.567 129.011C125.714 129.535 126 130.465 125.427 131.8C124.405 133.8 123.704 135.947 123.35 138.164C123.234 140.094 123.234 142.028 123.35 143.957V147.032C123.35 148.105 123.35 149.106 123.35 150.107C123.35 151.108 123.35 154.184 122.633 156.543C122.259 159 121.585 161.401 120.628 163.695C119.762 165.775 118.469 167.652 116.831 169.202C115.853 169.949 114.732 170.488 113.536 170.783C112.341 171.078 111.097 171.124 109.883 170.918Z" fill="white"/>
<path d="M73.7803 257.163C71.6741 257.258 69.5786 256.815 67.6918 255.876C67.0134 255.485 66.4506 254.922 66.0606 254.244C65.6706 253.566 65.4674 252.796 65.4712 252.014C65.3559 251.544 65.3559 251.054 65.4712 250.584C65.5268 250.4 65.6188 250.23 65.7419 250.082C65.8649 249.935 66.0164 249.814 66.1874 249.726C67.1289 250.413 68.2016 250.9 69.3392 251.156C70.584 251.444 71.8581 251.588 73.1359 251.585C75.9972 251.548 78.822 250.94 81.4449 249.797C84.1035 248.678 86.5319 247.078 88.6081 245.078C90.7541 243.032 92.5029 240.607 93.7658 237.926C95.0346 235.421 95.6968 232.653 95.6996 229.845C95.7209 228.107 95.195 226.406 94.1956 224.982C93.6277 224.224 92.8759 223.623 92.0113 223.235C91.1466 222.848 90.1975 222.686 89.253 222.765C87.9973 222.732 86.7498 222.976 85.5997 223.48L83.4508 218.903C84.5125 217.887 85.6905 216.998 86.9607 216.257C88.1595 215.65 89.4842 215.331 90.8287 215.328C92.0812 215.319 93.3183 215.606 94.4387 216.166C95.559 216.725 96.5309 217.54 97.2757 218.546C99.0572 221.069 99.9397 224.116 99.7826 227.199C99.781 230.85 98.9995 234.458 97.4903 237.783C96.0187 241.261 93.9863 244.474 91.4735 247.295C89.1044 250.161 86.2421 252.583 83.0211 254.446C80.2262 256.13 77.0433 257.066 73.7803 257.163V257.163Z" fill="white"/>
<path d="M98.4933 263.456C96.3775 263.567 94.272 263.097 92.4047 262.098C91.6727 261.739 91.06 261.178 90.6406 260.48C90.2212 259.782 90.0129 258.978 90.0408 258.164C89.9669 257.691 89.9669 257.208 90.0408 256.734C90.2047 256.371 90.4807 256.07 90.8286 255.876C91.7702 256.563 92.8429 257.05 93.9804 257.306C95.2245 257.598 96.4991 257.742 97.7771 257.735C101.147 257.781 104.49 257.123 107.591 255.805C110.52 254.602 113.194 252.855 115.47 250.656C117.792 248.432 119.771 245.878 121.344 243.075C122.963 240.166 124.215 237.067 125.069 233.85L124.137 233.492C123.52 234.153 122.761 234.667 121.917 234.994C120.946 235.419 119.897 235.638 118.837 235.638C117.986 235.668 117.137 235.547 116.329 235.28C115.517 235.058 114.761 234.668 114.109 234.136C113.416 233.475 112.878 232.669 112.533 231.776C112.13 230.554 111.936 229.272 111.96 227.986L115.828 220.191C116.26 219.392 116.816 218.668 117.476 218.045C117.888 217.611 118.39 217.272 118.946 217.05C119.503 216.827 120.101 216.728 120.699 216.758C122.009 216.732 123.292 217.134 124.352 217.902C125.383 218.636 126.24 219.589 126.86 220.691C127.508 221.892 128.013 223.164 128.364 224.482C128.694 225.694 128.862 226.944 128.865 228.2C128.807 232.285 128.031 236.327 126.573 240.143C125.025 244.265 122.85 248.124 120.126 251.585C117.408 254.974 114.11 257.855 110.384 260.095C106.802 262.278 102.69 263.44 98.4933 263.456V263.456Z" fill="white"/>
<path d="M136.028 218.76C135.226 218.219 134.502 217.569 133.879 216.829C133.538 216.49 133.313 216.051 133.236 215.576C133.158 215.101 133.233 214.614 133.449 214.183L134.954 211.18C135.62 212.271 136.496 213.219 137.532 213.969C138.544 214.732 139.652 215.357 140.828 215.828C141.687 216.257 142.188 216.758 142.26 217.402C142.21 218.244 141.938 219.058 141.472 219.762L141.042 220.548C139.258 220.334 137.545 219.723 136.028 218.76V218.76Z" fill="white"/>
<path d="M155.655 209.106C153.871 208.891 152.158 208.28 150.641 207.318C149.856 206.756 149.135 206.108 148.492 205.387C148.151 205.048 147.926 204.609 147.849 204.134C147.772 203.659 147.846 203.171 148.063 202.741L149.567 199.738C150.215 200.822 151.096 201.75 152.145 202.455C153.172 203.213 154.277 203.86 155.44 204.386C155.79 204.489 156.107 204.682 156.358 204.945C156.61 205.209 156.787 205.534 156.873 205.888C156.826 206.753 156.554 207.591 156.085 208.32L155.655 209.106ZM168.549 205.316C166.765 205.101 165.052 204.49 163.535 203.528C162.732 202.987 162.009 202.337 161.386 201.597C161.045 201.257 160.82 200.819 160.742 200.344C160.665 199.869 160.74 199.381 160.956 198.951L162.46 195.948C163.126 197.038 164.003 197.986 165.039 198.736C166.086 199.444 167.187 200.066 168.334 200.596C169.194 201.025 169.695 201.526 169.767 202.169C169.717 203.011 169.445 203.825 168.979 204.529L168.549 205.316Z" fill="white"/>
<path d="M118.479 272.896C116.908 272.931 115.354 272.562 113.966 271.824C113.275 271.464 112.712 270.9 112.353 270.209C111.994 269.518 111.857 268.733 111.96 267.962C111.879 267.536 111.879 267.1 111.96 266.675C112.054 266.314 112.254 265.99 112.534 265.745C115.086 266.54 117.779 266.785 120.434 266.465C123.089 266.144 125.645 265.265 127.934 263.885C130.709 261.894 132.968 259.271 134.524 256.234C135.527 254.446 136.387 252.729 137.175 251.085C137.918 249.496 138.779 247.966 139.753 246.508C140.698 245.076 141.83 243.777 143.12 242.646C144.656 241.322 146.431 240.303 148.349 239.643L150.498 238.784C151.157 238.497 151.782 238.137 152.361 237.712C152.948 237.185 153.434 236.554 153.793 235.852C154.279 234.908 154.616 233.895 154.796 232.849C155.369 230.417 156.587 229.201 158.593 229.201C158.529 231.777 158.095 234.33 157.303 236.782C156.767 238.598 155.893 240.296 154.725 241.788C153.914 242.92 152.921 243.91 151.787 244.72C150.849 245.398 149.841 245.974 148.779 246.436L145.771 247.652C144.827 248.057 143.917 248.536 143.049 249.082C141.861 249.886 140.859 250.934 140.112 252.157C139.395 253.373 138.679 254.589 138.034 255.876C137.39 257.163 135.742 260.238 134.596 262.241C133.476 264.221 132.104 266.048 130.513 267.676C129.026 269.258 127.251 270.544 125.284 271.466C123.147 272.431 120.825 272.919 118.479 272.896Z" fill="white"/>
<path d="M178.721 244.863C176.605 244.973 174.499 244.504 172.632 243.504C171.682 243.025 170.944 242.212 170.56 241.221C170.177 240.231 170.174 239.133 170.555 238.141C170.718 237.778 170.995 237.477 171.343 237.283C172.284 237.97 173.357 238.456 174.494 238.713C175.738 239.005 177.013 239.149 178.291 239.142C181.661 239.187 185.004 238.53 188.104 237.211C191.034 236.008 193.708 234.261 195.984 232.062C198.306 229.839 200.285 227.284 201.858 224.482C203.477 221.572 204.728 218.473 205.583 215.256L204.651 214.899C204.034 215.56 203.275 216.073 202.431 216.4C201.46 216.825 200.411 217.045 199.351 217.044C198.5 217.074 197.652 216.953 196.844 216.687C196.032 216.464 195.275 216.075 194.623 215.542C193.93 214.881 193.392 214.075 193.047 213.182C192.644 211.96 192.45 210.679 192.474 209.392L196.342 201.597C196.773 200.799 197.329 200.075 197.99 199.452C198.402 199.018 198.904 198.678 199.46 198.456C200.017 198.234 200.615 198.134 201.213 198.165C202.523 198.139 203.806 198.54 204.866 199.309C205.898 200.043 206.754 200.995 207.373 202.098C208.034 203.292 208.539 204.566 208.878 205.888C209.208 207.1 209.376 208.351 209.379 209.607C209.314 213.69 208.538 217.731 207.087 221.549C205.524 225.664 203.35 229.521 200.64 232.992C197.922 236.381 194.623 239.262 190.898 241.502C187.22 243.705 183.01 244.866 178.721 244.863Z" fill="white"/>
<path d="M219.264 282.908C217.148 283.019 215.043 282.549 213.176 281.55C212.226 281.071 211.488 280.258 211.104 279.267C210.72 278.276 210.718 277.178 211.099 276.186C211.262 275.823 211.538 275.523 211.886 275.328C212.828 276.015 213.901 276.502 215.038 276.758C216.282 277.051 217.556 277.195 218.834 277.187C221.696 277.15 224.521 276.542 227.144 275.4C229.793 274.263 232.219 272.665 234.307 270.679C236.431 268.631 238.156 266.206 239.393 263.528C240.662 261.022 241.324 258.255 241.327 255.447C241.369 253.717 240.868 252.016 239.894 250.584C239.325 249.81 238.562 249.198 237.683 248.809C236.803 248.42 235.837 248.268 234.88 248.367C233.648 248.342 232.426 248.586 231.299 249.083L229.149 244.506C230.219 243.539 231.397 242.699 232.66 242.002C233.859 241.395 235.183 241.076 236.528 241.073C237.78 241.064 239.017 241.352 240.137 241.911C241.258 242.47 242.23 243.285 242.975 244.291C244.756 246.814 245.639 249.861 245.482 252.944C245.444 256.591 244.664 260.192 243.189 263.528C241.826 267.142 239.864 270.502 237.387 273.469C235.001 276.319 232.142 278.738 228.935 280.62C225.972 282.227 222.634 283.017 219.264 282.908V282.908Z" fill="white"/>
<path d="M254.292 261.383C254.261 261.954 254.087 262.508 253.787 262.995C253.487 263.482 253.07 263.887 252.573 264.172C252.148 264.375 251.683 264.48 251.212 264.48C250.741 264.48 250.276 264.375 249.851 264.172C249.93 259.8 250.829 255.483 252.501 251.442C254.452 246.319 257.129 241.502 260.452 237.139C260.924 237.305 261.33 237.616 261.614 238.028C261.897 238.439 262.042 238.929 262.028 239.428C261.774 240.832 261.238 242.169 260.452 243.361C258.643 246.428 257.133 249.661 255.94 253.016C254.962 255.703 254.406 258.525 254.292 261.383V261.383Z" fill="white"/>
<path d="M257.587 298.212C256.778 297.652 256.034 297.004 255.367 296.281C255.092 295.895 254.945 295.432 254.945 294.958C254.945 294.484 255.092 294.022 255.367 293.635L256.799 290.632C257.489 291.684 258.363 292.605 259.378 293.349C260.44 294.093 261.566 294.739 262.745 295.28C263.604 295.638 264.106 296.21 264.106 296.782C264.127 297.647 263.876 298.497 263.389 299.213L262.96 300C261.052 299.839 259.21 299.226 257.587 298.212V298.212Z" fill="white"/>
<path d="M273.561 268.32C272.343 269.964 271.269 271.395 270.195 272.61C269.245 273.696 268.162 274.657 266.971 275.471C265.909 276.241 264.721 276.821 263.461 277.187C262.112 277.58 260.712 277.773 259.306 277.759C257.894 277.849 256.484 277.558 255.224 276.917C253.963 276.275 252.899 275.306 252.143 274.112C250.448 271.212 249.627 267.884 249.779 264.529C250.787 262.938 252.383 261.807 254.22 261.383C254.084 263.865 254.629 266.338 255.796 268.534C256.323 269.391 257.077 270.085 257.975 270.539C258.872 270.994 259.879 271.191 260.882 271.108C262.711 271.201 264.513 270.644 265.968 269.535C267.327 268.389 268.553 267.093 269.621 265.673C270.365 264.708 271.179 263.8 272.057 262.956C272.844 262.261 273.872 261.901 274.922 261.955C275.265 264.171 274.78 266.436 273.561 268.32V268.32Z" fill="white"/>
<path d="M294.692 260.024C293.69 261.239 292.687 262.527 291.541 263.742C290.473 265.011 289.272 266.162 287.959 267.175C286.77 268.19 285.444 269.033 284.019 269.678C282.604 270.33 281.065 270.672 279.507 270.679C278.276 270.691 277.056 270.448 275.925 269.964C274.941 269.598 274.039 269.039 273.275 268.319L274.779 261.74C276.598 263.09 278.816 263.795 281.082 263.742C283.32 263.831 285.529 263.205 287.386 261.955C289.159 260.61 290.706 258.993 291.97 257.163C290.764 255.619 289.03 254.575 287.1 254.231C285.508 253.955 283.87 254.128 282.372 254.732C281.983 254.561 281.663 254.261 281.468 253.884C281.272 253.507 281.212 253.074 281.297 252.658C281.53 251.658 281.996 250.726 282.658 249.94C284.346 247.877 286.412 246.153 288.747 244.863C291.078 243.6 293.688 242.936 296.34 242.932C298.084 242.799 299.816 243.308 301.211 244.362C301.742 244.866 302.157 245.478 302.429 246.157C302.701 246.836 302.823 247.565 302.787 248.295C302.757 249.435 302.489 250.556 301.999 251.585C301.479 252.75 300.83 253.853 300.065 254.875C299.283 255.94 298.421 256.944 297.486 257.878C296.647 258.706 295.709 259.426 294.692 260.024V260.024Z" fill="white"/>
<path d="M294.693 260.024C294.484 258.841 294.484 257.631 294.693 256.448C294.777 255.808 294.993 255.192 295.326 254.639C295.658 254.085 296.101 253.606 296.627 253.23C298.275 253.223 299.905 252.883 301.419 252.232C302.933 251.581 304.3 250.631 305.437 249.44C306.7 248.204 307.763 246.781 308.589 245.22C309.433 243.543 310.058 241.764 310.452 239.928C310.446 236.964 310.254 234.002 309.878 231.061C309.494 228.695 309.279 226.306 309.234 223.909C309.215 221.321 309.431 218.736 309.878 216.186C310.252 213.985 310.852 211.828 311.669 209.75C312.332 207.932 313.171 206.183 314.176 204.529C314.98 203.088 315.916 201.724 316.97 200.453C317.25 200.503 317.516 200.611 317.751 200.772C317.985 200.932 318.183 201.14 318.331 201.383C318.442 201.63 318.499 201.898 318.499 202.169C318.499 202.44 318.442 202.708 318.331 202.956C318.221 203.621 318.028 204.269 317.758 204.887L316.827 206.889C316.024 208.747 315.354 210.658 314.821 212.61C314.384 214.443 314.097 216.309 313.961 218.188C313.818 220.355 313.818 222.529 313.961 224.696C313.961 227.127 313.961 229.917 314.391 233.278C314.611 236.813 314.273 240.36 313.388 243.79C312.58 246.869 311.221 249.776 309.377 252.372C307.67 254.751 305.44 256.708 302.859 258.093C300.336 259.394 297.532 260.058 294.693 260.024Z" fill="white"/>
<path d="M310.451 265.745C309.667 265.747 308.889 265.601 308.159 265.316C307.401 264.979 306.719 264.492 306.153 263.885C308.928 262.557 311.487 260.822 313.746 258.737C315.952 256.694 317.772 254.272 319.119 251.585C320.592 248.652 321.63 245.52 322.199 242.289C322.898 238.226 323.233 234.11 323.202 229.988C323.202 228.081 323.202 226.007 323.202 223.766C323.202 221.549 323.202 219.189 323.202 216.615C323.221 212.605 323.873 208.622 325.136 204.815C326.296 201.177 328.117 197.783 330.508 194.803C330.78 194.849 331.038 194.956 331.262 195.117C331.486 195.279 331.669 195.489 331.798 195.733C331.883 196.134 331.883 196.548 331.798 196.949C331.803 197.625 331.63 198.291 331.296 198.88L330.222 201.24C329.344 203.203 328.718 205.27 328.359 207.39C327.923 209.561 327.636 211.759 327.5 213.969C327.357 216.184 327.357 218.405 327.5 220.62V226.984C327.509 231.167 327.27 235.346 326.783 239.499C326.282 243.52 325.443 247.49 324.276 251.37C323.775 252.872 323.058 254.517 322.27 256.305C321.506 258.001 320.518 259.589 319.334 261.025C318.168 262.422 316.79 263.629 315.251 264.601C313.79 265.423 312.127 265.82 310.451 265.745V265.745Z" fill="white"/>
</g>
<defs>
<clipPath id="clip0_2_296">
<rect width="378" height="300" fill="white"/>
</clipPath>
</defs>
</svg>
